<mxfile host="65bd71144e">
    <diagram id="bvMxqJy8REenpndCrTQX" name="Page-1">
        <mxGraphModel dx="916" dy="1559" grid="1" gridSize="10" guides="1" tooltips="1" connect="1" arrows="1" fold="1" page="1" pageScale="1" pageWidth="850" pageHeight="1100" background="none" math="0" shadow="1">
            <root>
                <mxCell id="0"/>
                <mxCell id="1" parent="0"/>
                <mxCell id="8" value="Topic&amp;nbsp; 205.1" style="ellipse;whiteSpace=wrap;html=1;align=center;treeFolding=1;treeMoving=1;newEdgeStyle={&quot;edgeStyle&quot;:&quot;entityRelationEdgeStyle&quot;,&quot;startArrow&quot;:&quot;none&quot;,&quot;endArrow&quot;:&quot;none&quot;,&quot;segment&quot;:10,&quot;curved&quot;:1};fillColor=#647687;fontColor=#CCCCCC;strokeColor=#314354;shadow=1;sketch=0;" parent="1" vertex="1">
                    <mxGeometry x="310" y="-505" width="130" height="60" as="geometry"/>
                </mxCell>
                <mxCell id="74" value="ifconfig" style="whiteSpace=wrap;html=1;rounded=1;arcSize=50;align=center;verticalAlign=middle;strokeWidth=1;autosize=1;spacing=4;treeFolding=1;treeMoving=1;newEdgeStyle={&quot;edgeStyle&quot;:&quot;entityRelationEdgeStyle&quot;,&quot;startArrow&quot;:&quot;none&quot;,&quot;endArrow&quot;:&quot;none&quot;,&quot;segment&quot;:10,&quot;curved&quot;:1};fillColor=#647687;fontColor=#CCCCCC;strokeColor=#314354;shadow=1;sketch=0;" parent="1" vertex="1">
                    <mxGeometry x="110" y="-490" width="80" height="30" as="geometry"/>
                </mxCell>
                <mxCell id="75" value="" style="edgeStyle=entityRelationEdgeStyle;startArrow=none;endArrow=none;segment=10;curved=1;exitX=0;exitY=0.5;exitDx=0;exitDy=0;fillColor=#647687;strokeColor=#314354;shadow=1;fontColor=#CCCCCC;sketch=0;entryX=1;entryY=0.5;entryDx=0;entryDy=0;" parent="1" source="8" target="74" edge="1">
                    <mxGeometry relative="1" as="geometry">
                        <mxPoint x="329.02" y="-415" as="sourcePoint"/>
                    </mxGeometry>
                </mxCell>
                <mxCell id="78" value="route" style="whiteSpace=wrap;html=1;rounded=1;arcSize=50;align=center;verticalAlign=middle;strokeWidth=1;autosize=1;spacing=4;treeFolding=1;treeMoving=1;newEdgeStyle={&quot;edgeStyle&quot;:&quot;entityRelationEdgeStyle&quot;,&quot;startArrow&quot;:&quot;none&quot;,&quot;endArrow&quot;:&quot;none&quot;,&quot;segment&quot;:10,&quot;curved&quot;:1};fillColor=#647687;fontColor=#CCCCCC;strokeColor=#314354;shadow=1;sketch=0;" parent="1" vertex="1">
                    <mxGeometry x="410" y="-660" width="70" height="30" as="geometry"/>
                </mxCell>
                <mxCell id="79" value="" style="edgeStyle=entityRelationEdgeStyle;startArrow=none;endArrow=none;segment=10;curved=1;exitX=0.5;exitY=0;exitDx=0;exitDy=0;fillColor=#647687;strokeColor=#314354;fontColor=#CCCCCC;shadow=1;sketch=0;" parent="1" source="8" target="78" edge="1">
                    <mxGeometry relative="1" as="geometry">
                        <mxPoint x="500" y="-465" as="sourcePoint"/>
                    </mxGeometry>
                </mxCell>
                <mxCell id="81" value="ip" style="whiteSpace=wrap;html=1;rounded=1;arcSize=50;align=center;verticalAlign=middle;strokeWidth=1;autosize=1;spacing=4;treeFolding=1;treeMoving=1;newEdgeStyle={&quot;edgeStyle&quot;:&quot;entityRelationEdgeStyle&quot;,&quot;startArrow&quot;:&quot;none&quot;,&quot;endArrow&quot;:&quot;none&quot;,&quot;segment&quot;:10,&quot;curved&quot;:1};fillColor=#647687;fontColor=#CCCCCC;strokeColor=#314354;shadow=1;sketch=0;" parent="1" vertex="1">
                    <mxGeometry x="190" y="-630" width="50" height="30" as="geometry"/>
                </mxCell>
                <mxCell id="82" value="" style="edgeStyle=entityRelationEdgeStyle;startArrow=none;endArrow=none;segment=10;curved=1;exitX=0.446;exitY=-0.05;exitDx=0;exitDy=0;fillColor=#647687;strokeColor=#314354;shadow=1;fontColor=#CCCCCC;sketch=0;entryX=0.5;entryY=1;entryDx=0;entryDy=0;exitPerimeter=0;" parent="1" source="8" target="81" edge="1">
                    <mxGeometry relative="1" as="geometry">
                        <mxPoint x="490" y="-435" as="sourcePoint"/>
                    </mxGeometry>
                </mxCell>
                <mxCell id="83" value="arp" style="whiteSpace=wrap;html=1;rounded=1;arcSize=50;align=center;verticalAlign=middle;strokeWidth=1;autosize=1;spacing=4;treeFolding=1;treeMoving=1;newEdgeStyle={&quot;edgeStyle&quot;:&quot;entityRelationEdgeStyle&quot;,&quot;startArrow&quot;:&quot;none&quot;,&quot;endArrow&quot;:&quot;none&quot;,&quot;segment&quot;:10,&quot;curved&quot;:1};fillColor=#647687;fontColor=#CCCCCC;strokeColor=#314354;shadow=1;sketch=0;" parent="1" vertex="1">
                    <mxGeometry x="570" y="-565" width="60" height="30" as="geometry"/>
                </mxCell>
                <mxCell id="84" value="" style="edgeStyle=entityRelationEdgeStyle;startArrow=none;endArrow=none;segment=10;curved=1;exitX=1;exitY=0;exitDx=0;exitDy=0;fillColor=#647687;strokeColor=#314354;shadow=1;fontColor=#CCCCCC;sketch=0;" parent="1" source="8" target="83" edge="1">
                    <mxGeometry relative="1" as="geometry">
                        <mxPoint x="400.9619407771256" y="-456.21320343559637" as="sourcePoint"/>
                    </mxGeometry>
                </mxCell>
                <mxCell id="85" value="iwconfig" style="whiteSpace=wrap;html=1;rounded=1;arcSize=50;align=center;verticalAlign=middle;strokeWidth=1;autosize=1;spacing=4;treeFolding=1;treeMoving=1;newEdgeStyle={&quot;edgeStyle&quot;:&quot;entityRelationEdgeStyle&quot;,&quot;startArrow&quot;:&quot;none&quot;,&quot;endArrow&quot;:&quot;none&quot;,&quot;segment&quot;:10,&quot;curved&quot;:1};fillColor=#647687;fontColor=#CCCCCC;strokeColor=#314354;shadow=1;sketch=0;" parent="1" vertex="1">
                    <mxGeometry x="170" y="-380" width="90" height="30" as="geometry"/>
                </mxCell>
                <mxCell id="86" value="" style="edgeStyle=entityRelationEdgeStyle;startArrow=none;endArrow=none;segment=10;curved=1;exitX=0.5;exitY=1;exitDx=0;exitDy=0;fillColor=#647687;strokeColor=#314354;shadow=1;fontColor=#CCCCCC;sketch=0;" parent="1" source="8" target="85" edge="1">
                    <mxGeometry relative="1" as="geometry">
                        <mxPoint x="400.9619407771256" y="-456.21320343559637" as="sourcePoint"/>
                    </mxGeometry>
                </mxCell>
                <mxCell id="88" value="iw" style="whiteSpace=wrap;html=1;rounded=1;arcSize=50;align=center;verticalAlign=middle;strokeWidth=1;autosize=1;spacing=4;treeFolding=1;treeMoving=1;newEdgeStyle={&quot;edgeStyle&quot;:&quot;entityRelationEdgeStyle&quot;,&quot;startArrow&quot;:&quot;none&quot;,&quot;endArrow&quot;:&quot;none&quot;,&quot;segment&quot;:10,&quot;curved&quot;:1};fillColor=#647687;fontColor=#CCCCCC;strokeColor=#314354;shadow=1;sketch=0;" parent="1" vertex="1">
                    <mxGeometry x="530" y="-330" width="50" height="30" as="geometry"/>
                </mxCell>
                <mxCell id="89" value="" style="edgeStyle=entityRelationEdgeStyle;startArrow=none;endArrow=none;segment=10;curved=1;exitX=1;exitY=1;exitDx=0;exitDy=0;fillColor=#647687;strokeColor=#314354;shadow=1;fontColor=#CCCCCC;sketch=0;" parent="1" source="8" target="88" edge="1">
                    <mxGeometry relative="1" as="geometry">
                        <mxPoint x="390.0019407771256" y="-331.21320343559637" as="sourcePoint"/>
                    </mxGeometry>
                </mxCell>
                <mxCell id="93" value="arpwatch" style="whiteSpace=wrap;html=1;rounded=1;arcSize=50;align=center;verticalAlign=middle;strokeWidth=1;autosize=1;spacing=4;treeFolding=1;treeMoving=1;newEdgeStyle={&quot;edgeStyle&quot;:&quot;entityRelationEdgeStyle&quot;,&quot;startArrow&quot;:&quot;none&quot;,&quot;endArrow&quot;:&quot;none&quot;,&quot;segment&quot;:10,&quot;curved&quot;:1};fillColor=#647687;fontColor=#CCCCCC;strokeColor=#314354;shadow=1;sketch=0;" parent="1" vertex="1">
                    <mxGeometry x="580" y="-445" width="90" height="30" as="geometry"/>
                </mxCell>
                <mxCell id="94" value="" style="edgeStyle=entityRelationEdgeStyle;startArrow=none;endArrow=none;segment=10;curved=1;exitX=1;exitY=0.5;exitDx=0;exitDy=0;fillColor=#647687;strokeColor=#314354;shadow=1;fontColor=#CCCCCC;sketch=0;" parent="1" source="8" target="93" edge="1">
                    <mxGeometry relative="1" as="geometry">
                        <mxPoint x="410.9619407771256" y="-446.21320343559637" as="sourcePoint"/>
                    </mxGeometry>
                </mxCell>
                <mxCell id="96" value="iwlist" style="whiteSpace=wrap;html=1;rounded=1;arcSize=50;align=center;verticalAlign=middle;strokeWidth=1;autosize=1;spacing=4;treeFolding=1;treeMoving=1;newEdgeStyle={&quot;edgeStyle&quot;:&quot;entityRelationEdgeStyle&quot;,&quot;startArrow&quot;:&quot;none&quot;,&quot;endArrow&quot;:&quot;none&quot;,&quot;segment&quot;:10,&quot;curved&quot;:1};fillColor=#647687;fontColor=#CCCCCC;strokeColor=#314354;shadow=1;sketch=0;" parent="1" vertex="1">
                    <mxGeometry x="349.9999999999999" y="-290" width="70" height="30" as="geometry"/>
                </mxCell>
                <mxCell id="97" value="" style="edgeStyle=entityRelationEdgeStyle;startArrow=none;endArrow=none;segment=10;curved=1;exitX=0.5;exitY=1;exitDx=0;exitDy=0;fillColor=#647687;strokeColor=#314354;shadow=1;fontColor=#CCCCCC;sketch=0;entryX=0.5;entryY=0;entryDx=0;entryDy=0;" parent="1" source="8" target="96" edge="1">
                    <mxGeometry relative="1" as="geometry">
                        <mxPoint x="400.9619407771256" y="-456.21320343559637" as="sourcePoint"/>
                    </mxGeometry>
                </mxCell>
            </root>
        </mxGraphModel>
    </diagram>
</mxfile>